<?xml version="1.0" encoding="utf-8"?>
<!-- Generator: Adobe Illustrator 23.0.0, SVG Export Plug-In . SVG Version: 6.00 Build 0)  -->
<svg version="1.0" xmlns="http://www.w3.org/2000/svg" xmlns:xlink="http://www.w3.org/1999/xlink" x="0px" y="0px"
	 viewBox="0 0 800 800" style="enable-background:new 0 0 800 800;" xml:space="preserve">
<style type="text/css">
	.st0{fill:#FFFFFF;}
	.st1{opacity:0.6;}
	.st2{opacity:0.4;fill:#FFFFFF;}
	.st3{opacity:0.42;fill:#FFFFFF;}
	.st4{opacity:0.42;fill:none;stroke:#FFFFFF;stroke-width:12;stroke-miterlimit:10;}
	.st5{fill:#FF9900;}
	.st6{opacity:0.38;}
	.st7{opacity:0.27;fill:url(#SVGID_1_);}
	.st8{fill:#FFA2B7;}
	.st9{opacity:0.43;fill:#FF7DA2;}
	.st10{fill:#00CCFF;}
	.st11{opacity:0.26;}
	.st12{opacity:0.32;}
	.st13{opacity:0.33;}
	.st14{fill:url(#SVGID_2_);}
	.st15{fill:#006699;}
	.st16{opacity:0.13;}
	.st17{fill:#FF0099;}
	.st18{opacity:0.39;}
	.st19{fill:#FFFF00;}
	.st20{fill:#FFCC00;}
	.st21{fill:none;stroke:#000000;stroke-miterlimit:10;}
</style>
<g id="Cenario">
	<g id="tela2">
		<path class="st0" d="M209,647"/>
		<g>
			<path class="st1" d="M41.1,435.8L42.9,574c0,3.3,1.1,6.5,3.1,9.1c10.5,14.1,34,54.9,74.9,74.5c31.4,15.1,96.4,38.5,116.2,45.4
				c2.8,1,5.8-1.1,5.8-4.2l-1.1-124.2c0.1-5.2-3-9.9-7.9-11.8c-21.3-8.1-78.5-30.2-99.9-39.9c-29.1-13.2-79.1-73.8-90.6-88
				C42.6,434,41,434.6,41.1,435.8z"/>
			
				<ellipse transform="matrix(0.7794 -0.6265 0.6265 0.7794 -296.3537 160.3312)" class="st2" cx="79.5" cy="501" rx="6.5" ry="9.2"/>
			
				<ellipse transform="matrix(0.7794 -0.6265 0.6265 0.7794 -289.8589 146.777)" class="st2" cx="63.5" cy="485" rx="6.5" ry="9.2"/>
			<path class="st2" d="M217.3,595.2c-0.2,2-2.1,3.2-4,2.6c-9.7-3.3-35.9-12.3-45.3-17c-9.3-4.6-32-18.5-37.7-22
				c-0.8-0.5-1.4-1.4-1.4-2.3l-0.4-5.7c-0.2-2.4,2.4-4.1,4.5-2.8c9.8,5.7,31.7,18.2,40.7,22.4c9.1,4.2,34.5,13.2,42.1,15.9
				c1.3,0.5,2.1,1.7,2,3.1L217.3,595.2z"/>
			<path class="st2" d="M211.4,650.2c-0.2,2.4-2.6,4-4.9,3.2c-10.3-3.5-35.3-12.1-44.5-16.7c-9.1-4.6-31.2-18-37.4-21.8
				c-1-0.6-1.7-1.7-1.8-2.9l-0.3-4c-0.2-3,3-5,5.6-3.5c10.3,6,30.8,17.7,39.5,21.7c8.9,4.1,33.4,12.8,41.6,15.7
				c1.6,0.6,2.6,2.1,2.5,3.8L211.4,650.2z"/>
			<path class="st2" d="M169.5,655.3c-0.3,3.6-4.2,5.8-7.4,4.1c-11.4-5.9-33.9-17.9-44.1-24.7c-8.2-5.4-28-21.4-34.7-26.9
				c-1.4-1.2-2.1-3-1.8-4.8l0.1-0.6c0.6-3.8,5.1-5.5,8.1-3.2c10.1,7.9,28.9,22.4,37,27c12.3,7,32.7,17.3,40.3,21.2
				c1.8,0.9,2.9,2.8,2.8,4.9L169.5,655.3z"/>
			<path class="st2" d="M176.5,599.3c-0.3,3.6-4.2,5.8-7.4,4.1c-11.4-5.9-33.9-17.9-44.1-24.7c-8.2-5.4-28-21.4-34.7-26.9
				c-1.4-1.2-2.1-3-1.8-4.8l0.1-0.6c0.6-3.8,5.1-5.5,8.1-3.2c10.1,7.9,28.9,22.4,37,27c12.3,7,32.7,17.3,40.3,21.2
				c1.8,0.9,2.9,2.8,2.8,4.9L176.5,599.3z"/>
		</g>
	</g>
	<g id="tela1">
		<g>
			<g>
				<g class="st1">
					<path d="M139.7,165l1.8,101.7c0,0.3,0.3,0.5,0.6,0.3c5.4-4.5,48.7-40.3,82.1-51.8c18-6.2,64.7-13.6,83.9-16.5
						c4.9-0.7,8.5-4.9,8.6-9.8l1.7-89.4c0.1-5.8-4.3-10.7-10-11.2c-18.2-1.7-57.7-3.2-91.4,10c-33.9,13.2-57.1,33.5-68.7,45.5
						C142.6,149.5,139.6,157.1,139.7,165z"/>
				</g>
				<path class="st3" d="M151.9,172.5c0,0.6,0.7,0.9,1.2,0.5c4.8-4.5,24-22.1,32.1-27.1c6.5-4,25.7-11.2,31.3-13.3
					c0.9-0.3,1.5-1.2,1.5-2.2v-12.8c0-0.7-0.7-1.2-1.4-0.9c-6,2.5-29.4,12.5-37.3,17.3c-6,3.7-20.1,15.3-25.8,20
					c-1.5,1.3-2.4,3.2-2.3,5.2L151.9,172.5z"/>
				<path class="st3" d="M176,189c0,0,23.9-14.4,33.2-20.1c7.6-4.7,37.8-12.9,37.8-12.9v-13.3c0-0.9-0.8-1.5-1.6-1.3
					c-6.8,1.6-33.2,7.7-41.1,12.5c-6.4,3.9-22.8,14.7-27.8,18.8c-1,0.8-1.5,2-1.4,3.3L176,189z"/>
			</g>
			<circle class="st4" cx="286" cy="173" r="18"/>
			<circle class="st3" cx="267" cy="110" r="7"/>
			<circle class="st3" cx="292" cy="108" r="7"/>
		</g>
		<g>
			<g>
				<g class="st1">
					<path d="M673.3,197l-1.8,101.7c0,0.3-0.3,0.5-0.6,0.3c-5.4-4.5-48.7-40.3-82.1-51.8c-18-6.2-64.7-13.6-83.9-16.5
						c-4.9-0.7-8.5-4.9-8.6-9.8l-1.7-89.4c-0.1-5.8,4.3-10.7,10-11.2c18.2-1.7,57.7-3.2,91.4,10c33.9,13.2,57.1,33.5,68.7,45.5
						C670.4,181.5,673.4,189.1,673.3,197z"/>
				</g>
				<path class="st3" d="M661.1,204.5c0,0.6-0.7,0.9-1.2,0.5c-4.8-4.5-24-22.1-32.1-27.1c-6.5-4-25.7-11.2-31.3-13.3
					c-0.9-0.3-1.5-1.2-1.5-2.2v-12.8c0-0.7,0.7-1.2,1.4-0.9c6,2.5,29.4,12.5,37.3,17.3c6,3.7,20.1,15.3,25.8,20
					c1.5,1.3,2.4,3.2,2.3,5.2L661.1,204.5z"/>
				<path class="st3" d="M637,221c0,0-23.9-14.4-33.2-20.1C596.2,196.2,566,188,566,188v-13.3c0-0.9,0.8-1.5,1.6-1.3
					c6.8,1.6,33.2,7.7,41.1,12.5c6.4,3.9,22.8,14.7,27.8,18.8c1,0.8,1.5,2,1.4,3.3L637,221z"/>
			</g>
			<circle class="st4" cx="527" cy="205" r="18"/>
			<circle class="st3" cx="546" cy="142" r="7"/>
			<circle class="st3" cx="521" cy="140" r="7"/>
		</g>
	</g>
</g>
<g id="persona">
	<g id="Calça">
		<path class="st5" d="M499,442c0,0,14.7,116,23,154c7.7,34.8,40,137,40,137l-112.5-1.5c0,0-18.9-75.4-23-101
			c-4.1-25.3-10-102-10-102s-21,92.6-25,124c-2.4,18.6-4,75-4,75h-110c0,0-3.5-90.7,3-120c9.9-44.7,73-168,73-168L499,442z"/>
		<path class="st6" d="M484,448c0,0,9.5,30.5,3.1,81.4c-4,31.8,12.8,66.4,13.9,71.6c7.7,34.8,61,133,61,133l-112.5-1.5
			c0,0-18.9-75.4-23-101c-4.1-25.3-10-102-10-102s-21,92.6-25,124c-2.4,18.6-4,75-4,75h-110c0,0-9-96,46-118
			c15.5-6.2,0.7-35.4,4.8-63.7c3.3-22.6,29.9-47.8,34.9-67.4c6-23.2,7.3-38.9,7.3-38.9L484,448z"/>
		<linearGradient id="SVGID_1_" gradientUnits="userSpaceOnUse" x1="395.5" y1="633.4351" x2="395.5" y2="387.5955">
			<stop  offset="0" style="stop-color:#FFFFFF"/>
			<stop  offset="0.2374" style="stop-color:#F1F1F1"/>
			<stop  offset="0.8084" style="stop-color:#000000"/>
		</linearGradient>
		<path class="st7" d="M374.5,581c0,0,16.9-47.8,20.9-64.8c3.5-15.1,9.1-63.2,9.1-63.2h6l6,74l-16,66L374.5,581z"/>
	</g>
	<g id="Mão_direita">
		<path class="st8" d="M244.7,185.8l-25.3,8c0,0-6.1-18.1-7.5-23.9c-0.6-2.4,0.5-4.8,2.5-4.6c1.7,0.2,3.4,4,3.5,2.1
			c0.1-1.7-2-3.5-3.1-7.8c-2.1-7.8-3.6-19.4-1-22.1c1.3-1.4,2.2-2.1,3.1-2.5c5.5-2.7,12.1,1,14.2,6.8c0,0,3.3,18.1,5.5,24
			C238.3,170.1,244.7,185.8,244.7,185.8z"/>
		<path class="st9" d="M244.7,185.8l-25.1,8.5c0,0,0.6-9.2,2.8-11.1c2.1-1.8,7.9,1.2,10.6-1.4c4.4-4.3,3.1-18,3.9-15.8
			c0,0,4.5,11.3,5.4,13.5C242.9,181.2,244.7,185.8,244.7,185.8z"/>
		<path class="st9" d="M217,140c1,3,0.3,10.6,1,14c0.5,2.1,2.8,5.9,3,8c0.1,1.6-2.5,7.5-3,6c-3-9-4.3-9.7-4.3-13.3
			C213.7,150.9,215.8,136.4,217,140z"/>
	</g>
	<g id="blusa">
		<path class="st10" d="M346.5,370.5c0,0-35.8-2.2-73-37c-31-29-56-102.8-56-124c0-1.9,7.6-4,15.9-7.7c8.8-3.9,18.5-9.3,21.1-9.3
			c4.5,0,22,42.8,30.9,57c6.8,10.7,34.1,42,34.1,42s32.2-77.6,52-96c14-13,30.8-14.9,42-16c31-3,81.7,3.2,103,10
			c41,13,81.2,62.3,101,94c4.8,7.7,9.5,26,9,35c-1.4,24.6-25.3,73.3-44,86c-28,19-31,18-44,15c-2.9-0.7,4.6-10.5,4.1-21
			c-0.4-8.7-9.4-17.4-6.1-24c2-4,31.8-40.1,30-56c-1.6-14.1-37-41-37-41s-11.4,115.8-26,148c-4.8,10.6-70,12.1-93,12
			c-19.5-0.1-45.9-5.8-57-12C341.2,418.7,346.5,370.5,346.5,370.5z"/>
		<path class="st11" d="M346.5,370.5c0,0-35.8-2.2-73-37c-31-29-56-102.8-56-124c0-1.9,7.6-4,15.9-7.7c8.8-3.9,21.5,23.7,23.1,25.7
			c4.5,5.5,7-0.2,15.9,14c3.3,5.3,8.5,26.3,17.6,40.1c9.4,14.2,22.7,21.1,29.5,19.9c20.5-3.5,20.5-39.7,22.4-45.6
			c3.1-9.9,26-36,28.2-39.7c3-5.2,0.8-19.3,5.5-23.7c5-4.7,9-5.4,12.1-7c5.5-2.8,8.2-3.1,9.4-3.5c1.7-0.6-9.5,45.8,23.1,39.3
			c36.9-7.3,41-40.6,45.8-40.4c13.6,0.5,23.4,2.6,31.2,3.9c8.1,1.4,14.3,2.3,19.5,4.7c4.5,2,5.1,9,8.7,14.9
			c5.3,8.7,15.3,17.7,24.4,26c21.7,19.8,34.3,16.4,45.9,35c2.6,4.1,2.5,18.6,10.1,30.6c6.5,10.3,7.1,28.3,6.9,32.4
			c-0.7,11.8-19.3,24.9-23.9,38.7c-5,15,1.6,28.7-8.1,35.3c-28,19-29,20-42,17c-2.9-0.7,4.6-10.5,4.1-21c-0.4-8.7-9.4-17.4-6.1-24
			c2-4,31.8-40.1,30-56c-1.6-14.1-37-41-37-41s-11.4,115.8-26,148c-4.8,10.6-70,12.1-93,12c-19.5-0.1-45.9-5.8-57-12
			C341.2,418.7,346.5,370.5,346.5,370.5z"/>
		<path class="st12" d="M373.3,239c0,0-9.9,14.3-12.6,19c-9.6,17.3-15.7,51.7-28.2,75.3c-5.5,10.3-25.2,24.3-25.2,24.3
			s18.5,8.8,24,10.1c4.6,1,15.6,2.3,15.6,2.3s4.1-36.9,6.2-48.1c1.8-9.4,5-27.1,9.1-43.7C367.4,257.8,373.3,239,373.3,239z"/>
		<path class="st13" d="M502.3,428.1c0,0,13.6-52.5,16.9-70.3c3.7-19.8,10.8-79.8,10.8-79.8l-23.3-15.2c0,0-7.2,61.2-7.9,82.1
			C498.1,365.7,502.3,428.1,502.3,428.1z"/>
		<g id="Mão_esquerda">
			<path class="st8" d="M526,411c0,0,6.2-14.4,3.2-25.4c-0.2-0.8-7.4-1.5-7.6-2.2c-0.6-2.1-1.1-4.8-1.4-6c-1.3-4.3-3.2-11.5-9.7-9.7
				c-7.3,2-3.5,14.4-2.5,16.9c0.8,2.1-8.1,4.1-9.9,4.4c-6.1,1-16.4,6.6-19,14c-2.1,5.9,5.2,15.4,10.5,16.4c8.4,1.6,18.5,0.2,23.9,0
				C525,419,526,411,526,411z"/>
			<linearGradient id="SVGID_2_" gradientUnits="userSpaceOnUse" x1="496.3987" y1="401.7949" x2="542.0653" y2="401.7949">
				<stop  offset="0.1473" style="stop-color:#FF7DA2;stop-opacity:0.1"/>
				<stop  offset="0.804" style="stop-color:#FF7DA2"/>
			</linearGradient>
			<path class="st14" d="M523,386c-2.5,2.5,0.4,19-3,23c-4.2,5-21.5,3.5-23,5c-5,5,22.3,4.9,28,2c5.2-2.6,4.8-14.1,5-18
				C530.3,393.2,525.5,383.5,523,386z"/>
		</g>
		<path class="st15" d="M500.5,442.5c-1.8,2.4-28.8,11.7-68,11.3c-26.4-0.3-66-6.6-78-16.3c-3.7-3-2-13-2-13s35.4,12.6,66.9,12.5
			c30.6,0,82.1-9.5,82.1-9.5S504.4,437.2,500.5,442.5z"/>
		<path class="st15" d="M539,416.5c-3.5,3.2-15.8,2.5-15-1c1-4.5,3.5-10,4-14.6c1-9.9-5.9-16.2-4-17.4c4-2.5,10-4,14-0.5
			c3.1,2.7,4.5,8.6,5,14.8C543.6,405,542.4,413.4,539,416.5z"/>
		<path class="st15" d="M251.1,193.9l-30.9,13.5c0,0-4.3-10.1-3.5-12.5c0.7-2,23.5-14.4,26.8-11.5
			C245.6,185.2,251.1,193.9,251.1,193.9z"/>
	</g>
	<g id="Cabeça">
		<path class="st8" d="M430.5,195.5h-4c-6.6,0-13.1-5.5-12-12c0.5-2.9,2.7-8.3,3-11.5c0.3-3.3,0.3-6.3,2.5-8.5
			c2.2-2.2,3.2-2.5,6.5-2.5h4c6.6,0,9.7,1.4,10,8c0.1,2.9,2,14.5,2,14.5C442.5,190.1,437.1,195.5,430.5,195.5z"/>
		<path class="st16" d="M422,174h-5.5v-2.8c0-5.6,4.6-10.2,10.2-10.2h8.3l0,0C435,168.2,429.2,174,422,174z"/>
		<path class="st8" d="M433.5,165.5h-17c-11.6,0-21-9.4-21-21v-22.2c0-9.3,7.5-16.8,16.8-16.8h21.3c4.4,0,8,3.6,8,8v44
			C441.5,161.9,437.9,165.5,433.5,165.5z"/>
		<path class="st17" d="M442.5,123.5c6.1,7.6-7.7,33,0,39c4.2,3.2,18.1-14.5,21.5-18.5c5.9-6.9,7.1-18.4,6.5-27.5
			c-0.5-7.1-3.2-18.6-15-24c-5.5-2.5-9.5-2.5-13-5c-13.2-9.5-4-22-16-30c-5.4-3.6-18.5-7-25-7c-2,0-20-2-30,19
			c-3.4,7.1-4.5,21.5,6,31c5.8,5.2,17.7,14.4,25,17c6.4,2.3,20.2,1.8,27,2C432.8,119.6,440.4,120.9,442.5,123.5z"/>
		<path class="st18" d="M440.9,126.1c4.8,6-6.1,25.8,0,30.5c3.3,2.5,5.5-6.5,8.2-9.6c4.6-5.4,14.4-19.2,13.9-26.3
			c-0.4-5.5-2.4-16.8-11.8-20.7C449.5,99.2,440,100,436,95c-8-10-7.2-16.2-16.7-22.5c-4.3-2.8-5.6-3.5-10.7-3.5
			c-1.6,0-15.8-1.6-23.6,14.8c-2.7,5.5,0.6,19.1,3.9,24.2c3.3,5.1,10.7,8.2,16.5,10.3c5,1.8,23.5-0.4,30.3,2.3
			C437.4,121.4,439.3,124,440.9,126.1z"/>
		<path class="st18" d="M398.5,115.5c0,0,27.1-3.5,35.9-3.3c4,0.1,14.3,0.4,17.1,3.3c4.7,4.8,2.6,19.1,1.2,25.8
			c-1,4.8-12.2,19.2-12.2,19.2s2.8-32.6-4-40c-2.2-2.4-14.3-0.7-20.1-1.4C405.2,117.7,398.5,115.5,398.5,115.5z"/>
		<ellipse cx="403" cy="135" rx="3" ry="5"/>
		<ellipse cx="419" cy="137" rx="3" ry="5"/>
	</g>
	<g id="headSet">
		<ellipse class="st19" cx="449" cy="128.8" rx="13.5" ry="14.3"/>
		<ellipse class="st20" cx="450.5" cy="129" rx="9" ry="10.5"/>
		<ellipse class="st19" cx="450.5" cy="129" rx="6" ry="7.5"/>
		<ellipse class="st20" cx="451" cy="129" rx="3.5" ry="4.5"/>
		<polyline class="st21" points="441.1,140.2 429.5,154.5 408.5,154.5 		"/>
		<path d="M412,155.5h-5c-0.8,0-1.5-0.7-1.5-1.5l0,0c0-0.8,0.7-1.5,1.5-1.5h5c0.8,0,1.5,0.7,1.5,1.5l0,0
			C413.5,154.8,412.8,155.5,412,155.5z"/>
	</g>
</g>
<g id="Layer_12">
	<g>
		<path class="st1" d="M710.9,456.8L709.1,595c0,3.3-1.1,6.5-3.1,9.1c-10.5,14.1-34,54.9-74.9,74.5c-31.4,15.1-96.4,38.5-116.2,45.4
			c-2.8,1-5.8-1.1-5.8-4.2l1.1-124.2c-0.1-5.2,3-9.9,7.9-11.8c21.3-8.1,78.5-30.2,99.9-39.9c29.1-13.2,79.1-73.8,90.6-88
			C709.4,455,711,455.6,710.9,456.8z"/>
		
			<ellipse transform="matrix(0.6265 -0.7794 0.7794 0.6265 -155.6883 719.0928)" class="st2" cx="672.5" cy="522" rx="9.2" ry="6.5"/>
		
			<ellipse transform="matrix(0.6265 -0.7794 0.7794 0.6265 -137.2424 725.5876)" class="st2" cx="688.5" cy="506" rx="9.2" ry="6.5"/>
		<path class="st2" d="M534.7,616.2c0.2,2,2.1,3.2,4,2.6c9.7-3.3,35.9-12.3,45.3-17c9.3-4.6,32-18.5,37.7-22
			c0.8-0.5,1.4-1.4,1.4-2.3l0.4-5.7c0.2-2.4-2.4-4.1-4.5-2.8c-9.8,5.7-31.7,18.2-40.7,22.4c-9.1,4.2-34.5,13.2-42.1,15.9
			c-1.3,0.5-2.1,1.7-2,3.1L534.7,616.2z"/>
		<path class="st2" d="M540.6,671.2c0.2,2.4,2.6,4,4.9,3.2c10.3-3.5,35.3-12.1,44.5-16.7c9.1-4.6,31.2-18,37.4-21.8
			c1-0.6,1.7-1.7,1.8-2.9l0.3-4c0.2-3-3-5-5.6-3.5c-10.3,6-30.8,17.7-39.5,21.7c-8.9,4.1-33.4,12.8-41.6,15.7
			c-1.6,0.6-2.6,2.1-2.5,3.8L540.6,671.2z"/>
		<path class="st2" d="M582.4,676.3c0.3,3.6,4.2,5.8,7.4,4.1c11.4-5.9,33.9-17.9,44.1-24.7c8.2-5.4,28-21.4,34.7-26.9
			c1.4-1.2,2.1-3,1.8-4.8l-0.1-0.6c-0.6-3.8-5.1-5.5-8.1-3.2c-10.1,7.9-28.9,22.4-37,27c-12.3,7-32.7,17.3-40.3,21.2
			c-1.8,0.9-2.9,2.8-2.8,4.9L582.4,676.3z"/>
		<path class="st2" d="M575.4,620.3c0.3,3.6,4.2,5.8,7.4,4.1c11.4-5.9,33.9-17.9,44.1-24.7c8.2-5.4,28-21.4,34.7-26.9
			c1.4-1.2,2.1-3,1.8-4.8l-0.1-0.6c-0.6-3.8-5.1-5.5-8.1-3.2c-10.1,7.9-28.9,22.4-37,27c-12.3,7-32.7,17.3-40.3,21.2
			c-1.8,0.9-2.9,2.8-2.8,4.9L575.4,620.3z"/>
	</g>
</g>
</svg>
