<svg fill="#000000" xmlns="http://www.w3.org/2000/svg"  viewBox="0 0 64 64" width="64px" height="64px"><path d="M 13 6 C 9.134 6 6 9.134 6 13 L 6 51 C 6 54.866 9.134 58 13 58 L 51 58 C 54.866 58 58 54.866 58 51 L 58 13 C 58 9.134 54.866 6 51 6 L 13 6 z M 13 8 L 51 8 C 53.761 8 56 10.239 56 13 L 56 51 C 56 53.761 53.761 56 51 56 L 13 56 C 10.239 56 8 53.761 8 51 L 8 13 C 8 10.239 10.239 8 13 8 z M 12 12 C 11.448 12 11 12.448 11 13 L 11 15 C 11 15.552 11.448 16 12 16 C 12.552 16 13 15.552 13 15 L 13 13 C 13 12.448 12.552 12 12 12 z M 17 12 C 16.448 12 16 12.448 16 13 L 16 15 C 16 15.552 16.448 16 17 16 C 17.552 16 18 15.552 18 15 L 18 13 C 18 12.448 17.552 12 17 12 z M 22 12 C 21.448 12 21 12.448 21 13 L 21 15 C 21 15.552 21.448 16 22 16 C 22.552 16 23 15.552 23 15 L 23 13 C 23 12.448 22.552 12 22 12 z M 27 12 C 26.448 12 26 12.448 26 13 L 26 15 C 26 15.552 26.448 16 27 16 C 27.552 16 28 15.552 28 15 L 28 13 C 28 12.448 27.552 12 27 12 z M 32 12 C 31.448 12 31 12.448 31 13 L 31 15 C 31 15.552 31.448 16 32 16 C 32.552 16 33 15.552 33 15 L 33 13 C 33 12.448 32.552 12 32 12 z M 37 12 C 36.448 12 36 12.448 36 13 L 36 15 C 36 15.552 36.448 16 37 16 C 37.552 16 38 15.552 38 15 L 38 13 C 38 12.448 37.552 12 37 12 z M 42 12 C 41.448 12 41 12.448 41 13 L 41 15 C 41 15.552 41.448 16 42 16 C 42.552 16 43 15.552 43 15 L 43 13 C 43 12.448 42.552 12 42 12 z M 47 12 C 46.448 12 46 12.448 46 13 L 46 15 C 46 15.552 46.448 16 47 16 C 47.552 16 48 15.552 48 15 L 48 13 C 48 12.448 47.552 12 47 12 z M 52 12 C 51.448 12 51 12.448 51 13 L 51 15 C 51 15.552 51.448 16 52 16 C 52.552 16 53 15.552 53 15 L 53 13 C 53 12.448 52.552 12 52 12 z M 12 24 C 11.447 24 11 24.448 11 25 L 11 50 C 11 50.552 11.447 51 12 51 L 24.527344 51 C 28.764344 51 32.210938 47.292328 32.210938 42.736328 C 32.210938 40.107328 30.940594 37.672812 28.933594 36.257812 C 30.239594 34.929813 31.009766 33.072187 31.009766 31.117188 C 31.009766 27.192187 28.035859 24 24.380859 24 L 12 24 z M 38 24 C 37.447 24 37 24.448 37 25 L 37 29 C 37 29.552 37.447 30 38 30 L 49 30 C 49.553 30 50 29.552 50 29 L 50 25 C 50 24.448 49.553 24 49 24 L 38 24 z M 39 26 L 48 26 L 48 28 L 39 28 L 39 26 z M 13 26.001953 L 24.380859 26.001953 C 26.933859 26.001953 29.009766 28.297141 29.009766 31.119141 C 29.009766 32.950141 28.094094 34.653453 26.621094 35.564453 C 26.300094 35.762453 26.120344 36.123047 26.152344 36.498047 C 26.183344 36.873047 26.423437 37.200797 26.773438 37.341797 C 28.829437 38.173797 30.210938 40.341328 30.210938 42.736328 C 30.210937 46.190328 27.661344 49 24.527344 49 L 13 49 L 13 26.001953 z M 17 28 C 16.447 28 16 28.448 16 29 L 16 34 C 16 34.552 16.447 35 17 35 L 22.591797 35 C 24.470797 35 26 33.486953 26 31.626953 L 26 31.373047 C 26 29.513047 24.470797 28 22.591797 28 L 17 28 z M 18 30 L 22.591797 30 C 23.367797 30 24 30.616047 24 31.373047 L 24 31.626953 C 24 32.383953 23.367797 33 22.591797 33 L 18 33 L 18 30 z M 43.5 31 C 38.262 31 34 35.71 34 41.5 C 34 47.29 38.262 52 43.5 52 C 47.425 52 49.686703 50.7285 51.845703 47.3125 C 52.015703 47.0435 52.047641 46.709109 51.931641 46.412109 C 51.815641 46.115109 51.564859 45.8935 51.255859 45.8125 L 47.255859 44.755859 C 46.905859 44.660859 46.527391 44.769156 46.275391 45.035156 C 45.408391 45.951156 44.843344 46.201172 43.652344 46.201172 L 43.349609 46.201172 C 42.118609 46.201172 41.090578 45.248 40.892578 44 L 51.970703 44 C 52.497703 44 52.93475 43.591453 52.96875 43.064453 C 52.98175 42.844453 53 41.724 53 41.5 C 53 35.71 48.738 31 43.5 31 z M 43.5 33 C 47.636 33 51 36.813 51 41.5 C 51 41.578 50.998094 41.775 50.996094 42 L 39.857422 42 C 39.304422 42 38.857422 42.448 38.857422 43 L 38.857422 43.558594 C 38.857422 46.117594 40.872609 48.201172 43.349609 48.201172 L 43.652344 48.201172 C 45.204344 48.201172 46.218828 47.834938 47.298828 46.835938 L 49.361328 47.380859 C 47.846328 49.314859 46.224 50 43.5 50 C 39.364 50 36 46.187 36 41.5 C 36 36.813 39.364 33 43.5 33 z M 43.353516 35.222656 C 40.952516 35.222656 39 37.032812 39 39.257812 L 39 39.388672 C 39 39.940672 39.447 40.388672 40 40.388672 L 47 40.388672 C 47.553 40.388672 47.999047 39.940672 47.998047 39.388672 L 47.998047 39.257812 C 47.998047 37.032813 46.045531 35.222656 43.644531 35.222656 L 43.353516 35.222656 z M 43.355469 37.222656 L 43.646484 37.222656 C 44.586484 37.222656 45.397391 37.699672 45.775391 38.388672 L 41.226562 38.388672 C 41.604562 37.699672 42.415469 37.222656 43.355469 37.222656 z M 17 38 C 16.447 38 16 38.448 16 39 L 16 45 C 16 45.552 16.447 46 17 46 L 22.591797 46 C 24.470797 46 26 44.273344 26 42.152344 L 26 41.847656 C 26 39.725656 24.470797 38 22.591797 38 L 17 38 z M 18 40 L 22.591797 40 C 23.354797 40 24 40.846656 24 41.847656 L 24 42.152344 C 24 43.154344 23.354797 44 22.591797 44 L 18 44 L 18 40 z"/></svg>